<?xml version="1.0" encoding="utf-8"?>
<!-- Svg Vector Icons : http://www.onlinewebfonts.com/icon -->
<!DOCTYPE svg PUBLIC "-//W3C//DTD SVG 1.1//EN" "http://www.w3.org/Graphics/SVG/1.1/DTD/svg11.dtd">
<svg version="1.1" xmlns="http://www.w3.org/2000/svg" xmlns:xlink="http://www.w3.org/1999/xlink" x="0px" y="0px" viewBox="0 0 256 256" enable-background="new 0 0 256 256" xml:space="preserve">
<metadata> Svg Vector Icons : http://www.onlinewebfonts.com/icon </metadata>
<g><g><g><path fill="#000000" d="M35.6,52.4l-16.6,0.2l-2.4,1.4c-3,1.7-5.6,5.3-6.3,8.5c-0.4,1.7-0.5,21.7-0.4,67l0.1,64.5l1.3,2.5c1.5,2.9,3.6,4.8,6.6,6.2c1.9,0.9,6.5,0.9,110,0.9h108l2.6-1.3c2.8-1.4,4.5-3.1,6.2-6.3l1.1-2v-66v-66l-1.1-2c-1.7-3.3-3.5-5-6.3-6.4l-2.6-1.3l-91.9,0C93.5,52.2,44.7,52.3,35.6,52.4z M52.5,72c0.3,13.2,0.6,14.3,5,18.2c7.3,6.6,18.2,4.2,22.8-5c1.1-2.2,1.1-3,1.3-13.6l0.1-11.2h46.4h46.4l0.1,11.2c0.1,10.6,0.2,11.4,1.3,13.6c4.5,9.2,15.5,11.6,22.7,5.1c1.3-1.1,2.9-3.2,3.6-4.5c1.2-2.3,1.2-2.9,1.5-13.8l0.2-11.4h16h16l0.9,1.2c0.9,1.1,0.9,2.9,0.9,66.3c0,63.4-0.1,65.2-0.9,66.3l-0.9,1.2H128.1H20.2l-0.9-1.2c-0.9-1.1-0.9-2.9-0.9-66.1c0-45,0.1-65.3,0.5-65.9c0.3-0.5,1-1.2,1.6-1.4c0.6-0.2,8-0.4,16.4-0.3l15.3,0.1L52.5,72z M73.2,71.1c0,9.7-0.1,10.9-0.9,12.3c-1.7,2.7-6.2,3.4-9.3,1.4c-2.3-1.5-2.6-3.4-2.6-14c0-5.4,0.1-10,0.3-10.1c0.1-0.2,3.1-0.3,6.4-0.3h6.1V71.1L73.2,71.1z M195.7,70.2c0.1,10.5-0.1,12.7-2.2,14.3c-2.9,2.3-7.9,1.7-9.6-1.1c-0.9-1.4-1-2.6-1-12.4V60.3l6.3,0.1l6.3,0.1L195.7,70.2z"/><path fill="#000000" d="M56.9,108.1c-10.8,2.8-20.7,12.1-24,22.6c-2.7,8.3-2,16.4,1.9,24.5c1.6,3.4,2.9,5,6.5,8.7c7.1,7.1,14.2,10.2,23.5,10.2c9.3,0,16.4-3.1,23.5-10.2c5.1-5.2,7.5-9.3,9.2-16.1c4.2-16.8-7.5-35.3-25-39.8C68.8,107.1,60.6,107.1,56.9,108.1z M70.3,115.9c9.1,2,16.2,8.6,18.9,17.6c1,3.6,1,10.9,0,14.4C86,159,76.5,166.2,64.8,166.2c-9.4,0-18-4.9-22.2-12.8c-2.3-4.3-3-7.4-3-12.7c0-7.6,2.5-13.5,7.7-18.4C53.5,116.4,61.8,114.1,70.3,115.9z"/><path fill="#000000" d="M60.9,130.3v6.2h-6.4H48v4.2v4.2h6.4h6.4v6.1c0,7.1-0.1,6.8,4.7,6.4l3.2-0.3V151v-6.1h6.4h6.4v-4.2v-4.2h-6.4h-6.4v-6.2v-6.2h-4h-4V130.3z"/><path fill="#000000" d="M113.3,115.5v4.2h52.6h52.6v-4.2v-4.2h-52.6h-52.7V115.5z"/><path fill="#000000" d="M113.3,140.7v4.2h52.6h52.6v-4.2v-4.2h-52.6h-52.7V140.7z"/><path fill="#000000" d="M115.1,162.1l-1.9,0.1v4v3.9h52.6h52.7l-0.1-4l-0.1-4.1l-50.7-0.1C139.8,161.9,116.1,162,115.1,162.1z"/></g></g></g>
</svg>