<svg width="34" height="45" viewBox="0 0 34 45" fill="none" xmlns="http://www.w3.org/2000/svg">
    <path d="M16.38 34.08L16.17 34.26C16.1038 34.3282 16.03 34.3886 15.95 34.44C15.8034 34.5653 15.6499 34.6822 15.49 34.79L12.22 41.51L11.57 37.64L12.57 36.09L12.22 36.16C11.91 36.21 11.6 36.25 11.29 36.27H10.77C10.1128 36.2672 9.45825 36.1866 8.82 36.03L9.82 37.62L9.21 41.56L5.58 34.44C5.37831 34.3047 5.18465 34.1578 5 34V34.1C1.48 37.1 0.549998 41.84 0.309998 44.31H20.84C20.16 37.09 17.15 34.61 16.38 34.08Z" fill="white"/>
    <path d="M10.73 20.13C9.18929 20.13 7.68317 20.5869 6.40211 21.4429C5.12105 22.2988 4.12259 23.5155 3.53298 24.9389C2.94338 26.3623 2.78911 27.9286 3.08969 29.4398C3.39027 30.9509 4.13219 32.3389 5.22164 33.4284C6.31109 34.5178 7.69914 35.2597 9.21025 35.5603C10.7214 35.8609 12.2877 35.7066 13.7111 35.117C15.1345 34.5274 16.3512 33.529 17.2072 32.2479C18.0631 30.9668 18.52 29.4607 18.52 27.92C18.5174 25.8548 17.6958 23.8749 16.2354 22.4146C14.7751 20.9542 12.7952 20.1327 10.73 20.13V20.13Z" fill="white"/>
    <path d="M33 39.1801C33.0227 39.1647 33.041 39.1437 33.0533 39.1192C33.0655 39.0947 33.0713 39.0674 33.07 39.0401C33.0646 39.0134 33.0538 38.9881 33.0384 38.9658C33.0229 38.9434 33.003 38.9245 32.98 38.9101C32.2816 38.5512 31.7043 37.9948 31.32 37.3101C31.7931 37.7429 32.3923 38.0127 33.03 38.0801C33.0533 38.0915 33.079 38.0975 33.105 38.0975C33.131 38.0975 33.1566 38.0915 33.18 38.0801C33.1923 38.0552 33.1987 38.0278 33.1987 38.0001C33.1987 37.9723 33.1923 37.9449 33.18 37.9201C32.5405 36.1391 32.0914 34.2955 31.84 32.4201C31.64 31.2601 31.45 30.1301 31.18 29.1301C31.0998 28.6982 30.9654 28.2782 30.78 27.8801C30.6103 27.4098 30.3818 26.9629 30.1 26.5501C29.771 26.0572 29.3467 25.6352 28.8521 25.3089C28.3575 24.9825 27.8025 24.7585 27.22 24.6501C26.6258 24.4567 26.0048 24.3588 25.38 24.3601C24.1665 24.3499 22.9854 24.7518 22.03 25.5001C21.0988 26.1266 20.3967 27.0393 20.03 28.1001C19.705 28.7958 19.4762 29.5326 19.35 30.2901C19.3124 30.4982 19.289 30.7087 19.28 30.9201C19.28 31.1701 19.19 31.4301 19.15 31.7001C19.008 33.2054 19.0754 34.7232 19.35 36.2101C20.7839 38.6997 21.6128 41.4913 21.77 44.3601H33.57C33.446 42.7174 33.0436 41.1078 32.38 39.6001C32.77 39.3501 33 39.1901 33 39.1801ZM29.39 38.2401C29.3 38.3501 27.46 39.5501 27.46 39.5501L28.36 40.7901L25.54 43.0001L22.67 40.7501L23.58 39.5101C23.58 39.5101 21.74 38.3101 21.65 38.2001C21.56 38.0901 22.47 37.0501 22.47 37.0501L25.53 43.0001L28.61 37.0601C28.61 37.0601 29.59 38.0001 29.43 38.2401H29.39Z" fill="white"/>
    <path d="M23.9 3.95949e-05H3.09C2.54797 -0.0106973 2.02376 0.193709 1.63207 0.56853C1.24038 0.94335 1.01312 1.45806 1 2.00004V13.23C1 13.4992 1.05303 13.7658 1.15605 14.0145C1.25907 14.2633 1.41007 14.4892 1.60043 14.6796C1.79079 14.87 2.01678 15.021 2.2655 15.124C2.51422 15.227 2.78079 15.28 3.05 15.28H11.42L11.14 18.8L14.2 15.28H23.9C24.1734 15.2867 24.4453 15.2386 24.6999 15.1386C24.9544 15.0386 25.1863 14.8886 25.382 14.6976C25.5777 14.5065 25.7332 14.2783 25.8393 14.0263C25.9454 13.7742 26.0001 13.5035 26 13.23V2.00004C25.9843 1.45717 25.7548 0.942462 25.3616 0.56791C24.9683 0.193358 24.443 -0.0107333 23.9 3.95949e-05V3.95949e-05ZM14.45 9.93004H4.06C3.96452 9.93004 3.87295 9.89211 3.80544 9.8246C3.73793 9.75709 3.7 9.66552 3.7 9.57004C3.7 9.47456 3.73793 9.38299 3.80544 9.31548C3.87295 9.24797 3.96452 9.21004 4.06 9.21004H14.45C14.4973 9.21004 14.5441 9.21935 14.5878 9.23744C14.6314 9.25554 14.6711 9.28205 14.7046 9.31548C14.738 9.34891 14.7645 9.3886 14.7826 9.43227C14.8007 9.47595 14.81 9.52276 14.81 9.57004C14.81 9.61732 14.8007 9.66413 14.7826 9.70781C14.7645 9.75148 14.738 9.79117 14.7046 9.8246C14.6711 9.85803 14.6314 9.88455 14.5878 9.90264C14.5441 9.92073 14.4973 9.93004 14.45 9.93004ZM22.68 7.44004H4.06C4.01272 7.44004 3.96591 7.43073 3.92223 7.41264C3.87856 7.39454 3.83887 7.36803 3.80544 7.3346C3.77201 7.30117 3.7455 7.26148 3.7274 7.21781C3.70931 7.17413 3.7 7.12732 3.7 7.08004C3.7 7.03276 3.70931 6.98595 3.7274 6.94227C3.7455 6.8986 3.77201 6.85891 3.80544 6.82548C3.83887 6.79205 3.87856 6.76554 3.92223 6.74744C3.96591 6.72935 4.01272 6.72004 4.06 6.72004H22.68C22.7755 6.72004 22.867 6.75797 22.9346 6.82548C23.0021 6.89299 23.04 6.98456 23.04 7.08004C23.04 7.17552 23.0021 7.26708 22.9346 7.3346C22.867 7.40211 22.7755 7.44004 22.68 7.44004V7.44004ZM22.68 4.95004H4.06C3.96452 4.95004 3.87295 4.91211 3.80544 4.8446C3.73793 4.77709 3.7 4.68552 3.7 4.59004C3.7 4.49456 3.73793 4.40299 3.80544 4.33548C3.87295 4.26797 3.96452 4.23004 4.06 4.23004H22.68C22.7755 4.23004 22.867 4.26797 22.9346 4.33548C23.0021 4.40299 23.04 4.49456 23.04 4.59004C23.04 4.68552 23.0021 4.77709 22.9346 4.8446C22.867 4.91211 22.7755 4.95004 22.68 4.95004Z" fill="white"/>
    <path d="M31.62 9.89005H26.89V13.94C26.8873 14.5271 26.6523 15.0892 26.2362 15.5034C25.8202 15.9175 25.257 16.1501 24.67 16.15H18.43V18.85C18.4287 19.019 18.4608 19.1865 18.5245 19.343C18.5883 19.4994 18.6823 19.6417 18.8013 19.7616C18.9203 19.8815 19.0619 19.9767 19.2178 20.0417C19.3738 20.1066 19.541 20.1401 19.71 20.14H26.06L28 22.34L27.83 20.14H31.64C31.9821 20.14 32.3102 20.0041 32.5521 19.7622C32.7941 19.5203 32.93 19.1922 32.93 18.85V11.18C32.93 11.0089 32.896 10.8396 32.8299 10.6817C32.7638 10.5239 32.667 10.3808 32.5451 10.2607C32.4232 10.1407 32.2786 10.0461 32.1198 9.98244C31.9609 9.9188 31.7911 9.88739 31.62 9.89005V9.89005Z" fill="white"/>
</svg>
