<svg width="1" height="1" viewBox="0 0 1 1" fill="none" xmlns="http://www.w3.org/2000/svg">
    <path fill-rule="evenodd" clip-rule="evenodd" d="M0.421875 0.617096V0.906158C0.421875 0.932049 0.442859 0.953033 0.46875 0.953033H0.90625C0.932141 0.953033 0.953125 0.932049 0.953125 0.906158V0.687408C0.953125 0.678783 0.946125 0.671783 0.9375 0.671783C0.928875 0.671783 0.921875 0.678783 0.921875 0.687408V0.906158C0.921875 0.914783 0.914875 0.921783 0.90625 0.921783H0.46875C0.460125 0.921783 0.453125 0.914783 0.453125 0.906158V0.617096C0.453125 0.608471 0.446125 0.601471 0.4375 0.601471C0.428875 0.601471 0.421875 0.608471 0.421875 0.617096ZM0.547516 0.0930176V0.531158C0.547516 0.539783 0.540531 0.546783 0.531891 0.546783H0.09375C0.085125 0.546783 0.078125 0.539783 0.078125 0.531158V0.312408C0.078125 0.303783 0.071125 0.296783 0.0625 0.296783C0.053875 0.296783 0.046875 0.303783 0.046875 0.312408V0.531158C0.046875 0.557049 0.0678594 0.578033 0.09375 0.578033H0.484375V0.874908C0.484375 0.883533 0.491375 0.890533 0.5 0.890533H0.875641C0.884281 0.890533 0.891266 0.883533 0.891266 0.874908V0.499268C0.891266 0.490627 0.884281 0.483643 0.875641 0.483643H0.578766V0.452393H0.90625C0.914875 0.452393 0.921875 0.459377 0.921875 0.468018V0.624908C0.921875 0.633533 0.928875 0.640533 0.9375 0.640533C0.946125 0.640533 0.953125 0.633533 0.953125 0.624908V0.468018C0.953125 0.442127 0.932141 0.421143 0.90625 0.421143H0.578766V0.0930176C0.578766 0.067127 0.557781 0.0461426 0.531891 0.0461426H0.09375C0.0678594 0.0461426 0.046875 0.067127 0.046875 0.0930176V0.249908C0.046875 0.258533 0.053875 0.265533 0.0625 0.265533C0.071125 0.265533 0.078125 0.258533 0.078125 0.249908V0.0930176C0.078125 0.084377 0.085125 0.0773926 0.09375 0.0773926H0.531891C0.540531 0.0773926 0.547516 0.084377 0.547516 0.0930176V0.0930176ZM0.653969 0.740533H0.748375L0.782562 0.818674C0.786016 0.826564 0.795234 0.830174 0.803141 0.826721C0.811031 0.823268 0.814641 0.814049 0.811188 0.806143L0.715484 0.587393C0.713 0.581705 0.707375 0.578033 0.701172 0.578033C0.694969 0.578033 0.689344 0.581705 0.686859 0.587393L0.591156 0.806143C0.587703 0.814049 0.591312 0.823268 0.599203 0.826721C0.607109 0.830174 0.616328 0.826564 0.619781 0.818674L0.653969 0.740533V0.740533ZM0.667641 0.709283H0.734703L0.701172 0.632643L0.667641 0.709283ZM0.516266 0.124268C0.516266 0.115627 0.509281 0.108643 0.500641 0.108643H0.125C0.116375 0.108643 0.109375 0.115627 0.109375 0.124268V0.499908C0.109375 0.508533 0.116375 0.515533 0.125 0.515533H0.500641C0.509281 0.515533 0.516266 0.508533 0.516266 0.499908V0.124268V0.124268ZM0.385797 0.423424L0.410828 0.448455C0.416922 0.454549 0.426828 0.454549 0.432922 0.448455C0.439016 0.442361 0.439016 0.432455 0.432922 0.426361L0.409813 0.403252C0.432219 0.379408 0.445953 0.347346 0.445953 0.31208C0.445953 0.238611 0.386297 0.178955 0.312828 0.178955C0.239344 0.178955 0.179688 0.238611 0.179688 0.31208C0.179688 0.385564 0.239344 0.445221 0.312828 0.445221C0.339766 0.445221 0.364844 0.437205 0.385797 0.423424ZM0.387703 0.381143C0.404469 0.362986 0.414703 0.338721 0.414703 0.31208C0.414703 0.255861 0.369047 0.210205 0.312828 0.210205C0.256594 0.210205 0.210938 0.255861 0.210938 0.31208C0.210938 0.368314 0.256594 0.413971 0.312828 0.413971C0.331094 0.413971 0.34825 0.409158 0.363078 0.400721L0.348328 0.385955C0.342234 0.379861 0.342234 0.369955 0.348328 0.363861C0.354422 0.357768 0.364328 0.357768 0.370422 0.363861L0.387703 0.381143V0.381143Z" fill="black"/>
</svg>
