<?xml version="1.0" encoding="utf-8"?>
<!-- Svg Vector Icons : http://www.onlinewebfonts.com/icon -->
<!DOCTYPE svg PUBLIC "-//W3C//DTD SVG 1.1//EN" "http://www.w3.org/Graphics/SVG/1.1/DTD/svg11.dtd">
<svg version="1.1" xmlns="http://www.w3.org/2000/svg" xmlns:xlink="http://www.w3.org/1999/xlink" x="0px" y="0px" viewBox="0 0 1000 1000" enable-background="new 0 0 1000 1000" xml:space="preserve">
<metadata> Svg Vector Icons : http://www.onlinewebfonts.com/icon </metadata>
<g><g transform="translate(0.000000,512.000000) scale(0.100000,-0.100000)"><path d="M1694.9,5008.8c-257.5-48-532.3-163.3-768.6-322.8C776.4,4584.1,542,4349.7,438.2,4194c-115.3-167.2-240.2-440-294-636L100,3394.6V118.4v-3276.3l44.2-163.3c53.8-194.1,178.7-467,294-636C543.9-4114.8,776.4-4347.3,934-4453c169.1-115.3,442-240.2,636-294l163.3-44.2H5000h3266.7l163.3,44.2c194.1,53.8,466.9,178.7,636,294c157.6,105.7,390.1,338.2,495.8,495.8c115.3,169.1,240.2,442,294,636l44.2,163.3V118.4v3276.3l-44.2,163.3c-194.1,707.1-703.3,1216.4-1425.8,1427.7l-144.1,40.4l-3228.2,3.8C2473.1,5033.7,1802.5,5029.9,1694.9,5008.8z M2934.3,3481.1v-461.2h-317.1h-317.1v461.2v461.2h317.1h317.1V3481.1z M7603.7,3481.1v-461.2h-307.5h-307.4v461.2v461.2h307.4h307.5V3481.1z M2146.5,3116v-249.8h470.8H3088V3116v249.8H4952h1863.9V3116v-249.8h470.8h470.8V3116v249.8h536.1h536.1l11.5-801.3c5.8-442,17.3-2042.6,23-3556.8l11.5-2751.7l-3906.6,3.8l-3908.5,5.8l-5.8,3551l-3.8,3549.1h547.6h547.6V3116z"/><path d="M1512.4,1482.7V867.8h634.1h634.1v614.9v614.9h-634.1h-634.1V1482.7z"/><path d="M2934.3,1482.7V867.8h624.5h624.5v614.9v614.9h-624.5h-624.5V1482.7z"/><path d="M4317.8,1482.7V867.8H4952h634.1v614.9v614.9H4952h-634.1V1482.7z"/><path d="M5739.8,1473.1V848.6h624.5h624.5v624.5v624.5h-624.5h-624.5V1473.1z"/><path d="M7142.5,1482.7V867.8h634.1h634.1v614.9v614.9h-634.1h-634.1V1482.7z"/><path d="M1516.2,95.3l5.8-620.6h624.5H2771l5.8,620.6l3.8,618.8h-634.1h-634.1L1516.2,95.3z M2646.1,108.8v-451.6h-490h-490v451.6v451.6h490h490V108.8z"/><path d="M2915.1,99.2v-614.9h634.1h634.1V99.2v614.9h-634.1h-634.1V99.2z M4058.4,108.8v-442l-484.2-5.8l-486.2-3.8v451.6v451.6l486.2-3.8l484.2-5.8V108.8z"/><path d="M4317.8,99.2v-614.9H4952h634.1V99.2v614.9H4952h-634.1V99.2z M5451.6,108.8v-451.6h-480.4h-480.4v451.6v451.6h480.4h480.4V108.8z"/><path d="M5739.8,89.6V-535l630.3,3.8l628.4,5.8l5.8,620.6l3.8,618.8h-634.1h-634.1V89.6z M6854.3,108.8v-451.6h-480.4h-480.4v451.6v451.6h480.4h480.4V108.8z"/><path d="M7142.5,99.2v-614.9h634.1h634.1V99.2v614.9h-634.1h-634.1V99.2z M8257.1,108.8v-451.6h-480.4h-480.4v451.6v451.6h480.4h480.4V108.8z"/><path d="M2934.3-1294v-624.5h624.5h624.5v624.5v624.5h-624.5h-624.5V-1294z"/><path d="M4327.5-694.5c-5.8-13.4-7.7-292.1-5.8-618.7l5.8-595.7l630.3-5.8l628.4-3.8v624.5v624.5h-624.5C4475.4-669.5,4333.2-675.2,4327.5-694.5z"/><path d="M5739.8-1294v-624.5h634.1H7008v624.5v624.5h-634.1h-634.1V-1294z"/><path d="M1516.2-1297.8l5.8-611h634.1h634.1l5.8,611l3.8,609.2h-643.7h-643.7L1516.2-1297.8z"/><path d="M7142.5-1303.6v-614.9h624.5h624.5v614.9v614.9h-624.5h-624.5V-1303.6z"/><path d="M1512.4-2667.9v-614.9h634.1h634.1v614.9v614.9h-634.1h-634.1V-2667.9z"/><path d="M2934.3-2667.9v-614.9h624.5h624.5v614.9v614.9h-624.5h-624.5V-2667.9z"/><path d="M4317.8-2667.9v-614.9H4952h634.1v614.9v614.9H4952h-634.1V-2667.9z"/><path d="M5739.8-2667.9v-614.9h634.1H7008v614.9v614.9h-634.1h-634.1V-2667.9z"/><path d="M7142.5-2667.9v-614.9h624.5h624.5v614.9v614.9h-624.5h-624.5V-2667.9z"/></g></g>
</svg>