<?xml version="1.0" encoding="utf-8"?>
<!-- Svg Vector Icons : http://www.onlinewebfonts.com/icon -->
<!DOCTYPE svg PUBLIC "-//W3C//DTD SVG 1.1//EN" "http://www.w3.org/Graphics/SVG/1.1/DTD/svg11.dtd">
<svg version="1.1" xmlns="http://www.w3.org/2000/svg" xmlns:xlink="http://www.w3.org/1999/xlink" x="0px" y="0px" viewBox="0 0 1000 1000" enable-background="new 0 0 1000 1000" xml:space="preserve">
<metadata> Svg Vector Icons : http://www.onlinewebfonts.com/icon </metadata>
<g><g transform="translate(0.000000,511.000000) scale(0.100000,-0.100000)"><path d="M3702.2,4284.2c-586.1-47-984.3-263.4-1221.2-661.6c-161.3-273.6-216.5-577.9-218.5-1215.1c0-226.7-4.1-249.1-38.8-259.3c-20.4-4.1-55.1-34.7-75.6-67.4c-59.2-89.9-53.1-437,10.2-641.2c61.3-198.1,163.4-392.1,287.9-547.3c69.4-87.8,116.4-173.6,153.2-283.9c61.3-185.8,169.5-388,267.5-510.5c38.8-47,69.4-91.9,69.4-102.1c0-42.9-549.3-322.7-1194.6-608.6c-696.4-306.3-792.3-361.4-970-541.2c-87.8-89.8-194-224.6-249.1-318.6c-194-332.9-353.3-816.8-406.4-1247.7c-24.5-192-22.5-208.3,14.3-273.7c87.8-149.1,408.4-249.1,1162-363.5c786.2-120.4,1353.9-171.5,2215.7-198.1c388-12.2,1484.6,18.4,1572.4,42.9c26.5,8.2,30.6,200.1,36.8,1535.7c2,841.3,0,1582.6-6.1,1652.1c-12.3,122.5-14.3,124.6-104.2,167.5c-49,24.5-126.6,67.4-171.5,96l-81.7,51l81.7,108.2c102.1,130.7,234.9,390,277.7,543.2c22.5,71.5,69.4,157.2,134.8,236.9c222.6,275.7,343.1,594.3,343.1,910.8c0,234.8-30.6,337-108.2,355.3l-51.1,14.3l-8.2,492.1c-8.2,443.1-14.3,508.5-55.1,637.1c-79.6,247.1-181.7,416.6-349.2,582c-243,245.1-516.7,363.5-939.4,408.4C3888,4298.5,3863.5,4298.5,3702.2,4284.2z"/><path d="M6158.8,445c-83.7-53.1-98-110.3-98-383.9c0-253.2,0-255.3,59.2-320.6c51-57.2,73.5-67.4,155.2-67.4c81.7,0,104.1,10.2,155.2,67.4c59.2,65.3,59.2,67.4,59.2,320.6c0,153.2-10.2,273.7-24.5,306.3C6418.2,471.5,6265,510.3,6158.8,445z"/><path d="M8866.7,410.3l-69.4-69.4V77.4c0-290,12.2-326.7,126.6-386c85.8-44.9,183.8-22.5,249.2,55.1c51,59.2,53.1,71.5,53.1,330.8c0,224.6-6.1,277.7-36.8,312.4C9099.5,502.2,8966.8,510.3,8866.7,410.3z"/><path d="M5446.1,93.8l-49-38.8l-6.1-1989c-4.1-1392.7,2-2003.3,18.4-2040.1c10.2-30.6,44.9-63.3,71.5-77.6c36.7-16.3,637.1-22.5,2164.6-22.5c2285.1,0,2211.6-4.1,2242.3,106.2c6.1,26.5,12.2,937.3,12.2,2023.7V32.5l-51.1,49c-44.9,47-63.3,51.1-263.4,51.1h-212.4l-8.2-192c-6.1-214.4-30.6-267.5-161.3-355.3c-59.2-40.8-89.9-47-206.3-40.8c-163.4,8.2-230.8,49-296.1,179.7c-36.7,71.5-47,124.6-47,249.2v159.3H7643.5H6632.6V-26.7c0-287.9-118.4-432.9-357.4-432.9c-238.9,0-357.4,145-357.4,432.9v159.3h-212.4C5527.8,132.6,5485,126.4,5446.1,93.8z M9552.9-786.4c40.8-40.8,40.8-67.4,40.8-1470.3c0-1402.9,0-1429.5-40.8-1470.3c-40.8-40.8-67.4-40.8-1909.4-40.8c-1842,0-1868.5,0-1909.4,40.8c-40.8,40.8-40.8,67.4-40.8,1470.3c0,1402.9,0,1429.5,40.8,1470.3c40.8,40.8,67.4,40.8,1909.4,40.8C9485.5-745.6,9512-745.6,9552.9-786.4z"/><path d="M5901.6-974.3c-34.7-34.7-34.7-651.4,0-686.1c34.7-34.7,631-34.7,665.7,0c34.7,34.7,34.7,651.4,0,686.1c-16.3,16.3-120.5,24.5-332.9,24.5S5917.9-957.9,5901.6-974.3z"/><path d="M6840.9-974.3c-34.7-34.7-34.7-651.4,0-686.1c28.6-28.6,622.8-34.7,667.8-6.1c38.8,24.5,40.8,639.2,2,686.1c-20.4,24.5-83.7,30.6-334.9,30.6C6961.4-949.8,6857.3-957.9,6840.9-974.3z"/><path d="M7780.3-974.3c-34.7-34.7-34.7-651.4,0-686.1c38.8-38.8,637.1-34.7,669.8,6.1c36.8,42.9,40.8,614.7,4.1,665.7c-24.5,34.7-57.2,38.8-339,38.8C7900.8-949.8,7796.6-957.9,7780.3-974.3z"/><path d="M8719.7-974.3c-34.7-34.7-34.7-651.4,0-686.1c30.6-30.6,622.8-34.7,669.8-4.1c24.5,14.3,32.7,79.7,36.7,316.5c10.2,418.6,28.6,398.2-369.6,398.2C8840.1-949.8,8736-957.9,8719.7-974.3z"/><path d="M5901.6-1913.6c-34.7-34.7-34.7-651.4,0-686.1c34.7-34.7,631-34.7,665.7,0c34.7,34.7,34.7,651.4,0,686.1c-16.3,16.3-120.5,24.5-332.9,24.5S5917.9-1897.3,5901.6-1913.6z"/><path d="M6840.9-1913.6c-34.7-34.7-34.7-651.4,0-686.1c38.8-38.8,637.1-34.7,669.8,6.1c36.8,42.9,40.8,614.7,4.1,665.7c-24.5,34.7-57.2,38.8-339,38.8C6961.4-1889.2,6857.3-1897.3,6840.9-1913.6z"/><path d="M7780.3-1913.6c-34.7-34.7-34.7-651.4,0-686.1c38.8-38.8,637.1-34.7,669.8,6.1c34.7,40.8,32.7,633.1-2,675.9C8417.4-1878.9,7819.1-1874.8,7780.3-1913.6z"/><path d="M8719.7-1913.6c-34.7-34.7-34.7-651.4,0-686.1c16.3-16.3,120.5-24.5,334.9-24.5c394.2,0,375.8-18.4,375.8,367.6c0,386,18.4,367.6-375.8,367.6C8840.1-1889.2,8736-1897.3,8719.7-1913.6z"/><path d="M5901.6-2853c-16.3-16.4-24.5-122.5-24.5-347.2c0-296.1,2-322.7,38.8-343.1c53.1-26.5,584.1-26.5,637.1,0c36.8,20.4,38.8,47,38.8,355.3c0,285.9-4.1,337-32.7,347.2C6495.8-2816.3,5928.1-2826.5,5901.6-2853z"/><path d="M6840.9-2853c-16.3-16.4-24.5-122.5-24.5-347.2c0-296.1,2-322.7,38.8-343.1c61.3-30.6,598.3-26.5,643.3,6.1c34.7,24.5,36.8,61.3,36.8,351.2c-2.1,243-8.2,326.7-28.6,339C7463.8-2818.3,6869.5-2824.4,6840.9-2853z"/><path d="M7780.3-2853c-16.3-16.4-24.5-122.5-24.5-347.2c0-296.1,2-322.7,38.8-343.1c22.5-10.2,171.5-20.4,334.9-20.4c236.9,0,300.2,6.1,320.6,30.6c36.8,45,34.7,661.7-2,686.1C8403.1-2818.3,7808.9-2824.4,7780.3-2853z"/><path d="M8719.7-2853c-16.3-16.4-24.5-122.5-24.5-347.2c0-296.1,2-322.7,38.8-343.1c63.3-32.7,598.3-26.5,647.3,8.2c34.7,26.6,38.8,57.2,38.8,349.2c0,259.4-6.1,320.6-30.6,336.9C9342.5-2818.3,8750.3-2822.4,8719.7-2853z"/></g></g>
</svg>