<?xml version="1.0" encoding="utf-8"?>
<!-- Svg Vector Icons : http://www.onlinewebfonts.com/icon -->
<!DOCTYPE svg PUBLIC "-//W3C//DTD SVG 1.1//EN" "http://www.w3.org/Graphics/SVG/1.1/DTD/svg11.dtd">
<svg version="1.1" xmlns="http://www.w3.org/2000/svg" xmlns:xlink="http://www.w3.org/1999/xlink" x="0px" y="0px" viewBox="0 0 1000 1000" enable-background="new 0 0 1000 1000" xml:space="preserve">
<metadata> Svg Vector Icons : http://www.onlinewebfonts.com/icon </metadata>
<g><g transform="translate(0.000000,511.000000) scale(0.100000,-0.100000)"><path d="M1720.9,4924.2c-28.8-4.8-60.1-33.7-67.3-62.5c-24.1-93.8-16.8-1026.9,9.6-1077.4c24.1-40.9,55.3-45.7,372.8-45.7c190,0,360.7,7.2,382.4,14.4c33.7,12,38.5,86.6,38.5,589.2v574.8h-274.2c-149.1,0-303,4.8-341.5,9.6C1802.7,4931.4,1747.4,4931.4,1720.9,4924.2z"/><path d="M7507.1,4383.1c0-295.8,7.2-560.3,14.4-591.6c14.4-52.9,19.3-52.9,389.6-48.1l375.2,7.2l12,60.1c9.6,33.7,12,295.8,7.2,584.4l-9.6,521.9h-394.4h-394.4V4383.1z"/><path d="M383.8,4202.7l-283.8-9.6V-253.6v-4449.1l115.4-2.4c62.5,0,2267.8-2.4,4898.8-2.4l4785.8-2.4v947.5c0,1072.6-38.5,7943.4-45.7,7950.6c-2.4,2.4-307.8,12-680.6,21.6l-678.2,16.8l-7.2-322.3l-7.2-322.3l-570-7.2l-570-4.8l-7.2,317.5l-7.2,319.8H4982H2637.2L2630,3890l-7.2-319.8H2048h-577.2v324.7v324.7l-401.6-4.8C845.5,4212.3,537.7,4205.1,383.8,4202.7z M2240.4,1838.7v-769.6h-769.6H701.2v769.6v769.6h769.6h769.6V1838.7z M4020,1838.7v-769.6h-781.6h-781.6v769.6v769.6h781.6H4020V1838.7z M5775.6,1838.7v-769.6H4994h-781.6v769.6v769.6H4994h781.6V1838.7z M9286.7,1838.7v-769.6l-774.4,4.8l-776.8,7.2l-7.2,733.5c-2.4,404,0,745.5,7.2,762.4c7.2,24,182.8,31.3,781.6,31.3h769.6V1838.7z M7531.2,1826.6v-757.5h-781.6H5968v757.5v757.5h781.6h781.6V1826.6z M9286.7,107.1v-769.6h-781.6h-781.6v769.6v769.6h781.6h781.6V107.1z M2257.2,102.3l-4.8-752.7l-774.4-7.2l-776.8-4.8V95.1v757.5h779.2H2262L2257.2,102.3z M4020,95.1v-757.5h-781.6h-781.6V95.1v757.5h781.6H4020V95.1z M5751.5,95.1v-757.5H4982h-769.6V95.1v757.5H4982h769.6V95.1z M7531.2,95.1v-757.5h-781.6H5968V95.1v757.5h781.6h781.6V95.1z M2264.4-1648.4V-2418h-781.6H701.2v769.6v769.6h781.6h781.6V-1648.4z M4020-1636.4V-2394h-781.6h-781.6v757.5v757.5h781.6H4020V-1636.4z M5751.5-1636.4V-2394H4982h-769.6v757.5v757.5H4982h769.6V-1636.4z M7531.2-1636.4V-2394h-781.6H5968v757.5v757.5h781.6h781.6V-1636.4z M9286.7-1648.4V-2418l-774.4,4.8l-776.8,7.2l-7.2,764.7l-4.8,762.4h781.6h781.6V-1648.4z M2240.4-3355.9v-769.6h-769.6H701.2v769.6v769.6h769.6h769.6V-3355.9z M4015.2-3360.8l4.8-764.7h-781.6h-781.6v769.6v769.6l776.8-4.8l774.4-7.2L4015.2-3360.8z M5775.6-3355.9v-769.6H4994h-781.6v769.6v769.6H4994h781.6V-3355.9z M7531.2-3355.9v-769.6h-769.6H5992v769.6v769.6h769.6h769.6V-3355.9z M9286.7-3355.9v-769.6l-774.4,4.8l-776.8,7.2l-7.2,733.5c-2.4,404,0,745.5,7.2,762.3c7.2,24.1,182.8,31.3,781.6,31.3h769.6V-3355.9z"/><path d="M7891.9,119.2V-446h613.3h613.3v565.1v565.2h-613.3h-613.3V119.2z"/><path d="M869.6,119.2V-446h610.8h613.3l7.2,67.3c4.8,36.1,4.8,288.6,0,565.2l-7.2,497.8h-610.8H869.6V119.2z"/><path d="M2625.2,193.7c0-269.4,7.2-524.3,14.4-565.2l16.8-74.6h608.5h610.8v565.1v565.2h-625.3h-625.3V193.7z"/><path d="M4404.8,119.2V-446H5018h613.3v565.1v565.2H5018h-613.3V119.2z"/><path d="M6150.7,645.8c-7.2-21.6-14.4-257.3-14.4-526.7c0-269.4,7.2-505,14.4-526.7c12-33.7,91.4-38.5,625.3-38.5h610.9v565.1v565.2H6776C6242.1,684.3,6162.8,679.5,6150.7,645.8z"/></g></g>
</svg>