<?xml version="1.0" encoding="utf-8"?>
<!-- Svg Vector Icons : http://www.onlinewebfonts.com/icon -->
<!DOCTYPE svg PUBLIC "-//W3C//DTD SVG 1.1//EN" "http://www.w3.org/Graphics/SVG/1.1/DTD/svg11.dtd">
<svg version="1.1" xmlns="http://www.w3.org/2000/svg" xmlns:xlink="http://www.w3.org/1999/xlink" x="0px" y="0px" viewBox="0 0 1000 1000" enable-background="new 0 0 1000 1000" xml:space="preserve">
<metadata> Svg Vector Icons : http://www.onlinewebfonts.com/icon </metadata>
<g><g transform="translate(0.000000,512.000000) scale(0.100000,-0.100000)"><path d="M4689.7,5016.6c-759.2-65.2-1353.5-232-1968.9-554.1c-893.4-465.9-1652.6-1236.6-2105-2137.6C264.9,1625.1,100,923.4,100,120.1c0-801.4,164.9-1506.9,513.8-2202.8c400.7-795.6,1071.7-1522.2,1842.4-1991.9c1608.5-981.6,3671.4-937.5,5249.1,111.2C9743.3-2608,10471.8,18.5,9423.1,2229c-245.4,511.9-540.6,927.9-964.3,1353.5c-784.1,784.1-1704.4,1240.4-2810.5,1397.6C5448.9,5008.9,4854.5,5031.9,4689.7,5016.6z M5443.1,3295c34.5-15.3,243.5-209,464-431.4l402.6-404.5l5.7-450.5l5.8-450.5h272.2c299.1,0,393-17.3,490.8-90.1c107.4-82.4,136.1-172.5,136.1-448.6V775.8l322.1-7.7c285.7-5.7,329.8-11.5,400.7-49.8c122.7-65.2,209-147.6,262.7-256.9c92-184,109.3-132.3-542.6-1652.6c-325.9-757.3-605.8-1393.8-623.1-1412.9c-28.8-34.5-99.7-36.4-2421.4-40.3c-1317.1-1.9-2440.5-1.9-2498,0c-149.5,7.7-266.5,70.9-325.9,178.3l-47.9,84.3v2101.2v2099.3l51.8,78.6c86.3,130.4,184,164.9,492.7,170.6c143.8,1.9,279.9,5.7,304.8,5.7l42.2,1.9v567.5v567.5l55.6,55.6l55.6,55.6h1317.1C5149.8,3321.8,5391.3,3318,5443.1,3295z"/><path d="M2947,1688.4c0-1240.4,1.9-1324.7,32.6-1280.7c57.5,90.1,212.8,228.1,304.8,276.1c166.8,82.4,251.1,88.2,1524.1,88.2h1204v697.8v699.8l-364.3,5.8c-485,7.7-448.6-28.8-456.3,465.9l-5.7,373.8H4064.7H2945.1L2947,1688.4z M4860.3,2505.1c53.7-69,51.8-151.5-7.7-209l-46-47.9h-697.8c-676.8,0-699.8,1.9-749.6,40.3c-63.3,49.8-70.9,168.7-11.5,228.1c36.4,36.4,63.3,38.3,755.4,38.3h718.9L4860.3,2505.1z M5563.9,1590.6c57.5-69,57.5-130.4,0-199.4l-46-53.7H4450H3382.2l-36.4,46c-69,84.4-30.7,237.7,65.2,256.9c23,5.8,506.1,7.7,1073.6,5.8l1033.3-1.9L5563.9,1590.6z"/><path d="M5502.5,2744.7c5.7-32.6,11.5-107.4,11.5-163v-103.5h166.8h168.7l-163,163c-90.1,90.1-170.6,163-180.2,163C5498.7,2804.2,5494.9,2777.3,5502.5,2744.7z"/><path d="M2065.1,1722.9c-15.3-19.2-19.2-488.9-17.3-1737l5.7-1713.9l293.3,682.5l291.4,684.4V693.4v1056.4h-276.1C2153.3,1749.7,2082.3,1744,2065.1,1722.9z"/><path d="M6319.3,1011.6V772h297.1h297.2v216.6c0,143.8-7.7,224.3-23,239.6c-15.3,15.3-109.3,23-297.2,23h-274.1V1011.6z"/><path d="M3529.8,448c-172.5-42.2-274.2-149.5-375.8-393c-44.1-107.4-186-435.2-314.4-730.4c-362.3-828.2-680.6-1577.8-680.6-1597c0-59.4,115-61.3,2396.4-57.5l2289.1,5.8l523.4,1217.4c657.6,1533.7,592.4,1361.2,550.2,1447.5c-61.4,132.3,65.2,124.6-2245,122.7C4526.7,461.4,3562.4,455.6,3529.8,448z"/></g></g>
</svg>