<svg width="28" height="28" viewBox="0 0 28 28" fill="none" xmlns="http://www.w3.org/2000/svg">
    <path fill-rule="evenodd" clip-rule="evenodd" d="M23.4408 4.09155H26.0608C26.5756 4.09155 27.0444 4.26949 27.3851 4.5549C27.7237 4.83972 27.9342 5.23721 28 5.67109V12.9986L27.9733 12.9916L27.9205 12.9766L27.8944 12.9697L27.8684 12.9622L27.8417 12.9546L27.8156 12.9471L27.71 12.9171L27.6833 12.9096L27.6573 12.9021L27.6305 12.894L27.6052 12.8865L27.4996 12.8553L27.4735 12.8472L27.4468 12.8397L27.4215 12.8316L27.3947 12.8235L27.3769 12.8183L27.3687 12.816L27.3426 12.8079L27.3159 12.7998L27.2898 12.7917L27.2638 12.7836L27.2377 12.7755L27.2117 12.7669L27.1596 12.7507L27.1329 12.7426L27.1075 12.734L27.0808 12.7259L27.0547 12.7178L27.0287 12.7091L27.0033 12.701H27.0019L26.9773 12.6924L26.9505 12.6837L26.9245 12.6756L26.8991 12.6669L26.8731 12.6583L26.847 12.6496L26.7949 12.6328L26.7689 12.6242L26.7428 12.6155L26.7175 12.6068L26.6914 12.5982L26.6654 12.5889L26.6304 12.5774L26.6139 12.5716L26.5879 12.5629L26.5619 12.5537L26.5365 12.545L26.5104 12.5364L26.4844 12.5271L26.459 12.5185L26.4446 12.5138L26.433 12.5092L26.4069 12.5L26.3816 12.4913L26.3555 12.4821L26.3302 12.4734V5.67109C26.3302 5.60985 26.3014 5.5515 26.2486 5.51279C26.1999 5.47061 26.1327 5.44404 26.0608 5.44404H23.4408V11.2728L23.4196 11.263L23.4148 11.2607L23.3894 11.248L23.3634 11.2359L23.338 11.2237L23.312 11.211L23.2859 11.1989L23.2606 11.1868L23.2503 11.1821L23.2345 11.1741L23.2085 11.1619L23.1831 11.1492L23.157 11.1371L23.1317 11.1244L23.1056 11.1117L23.0823 11.1001L23.0803 11.0995L23.0549 11.0868L23.0289 11.0741L23.0035 11.062L22.9781 11.0493L22.9528 11.0366L22.9274 11.0244L22.9151 11.0186L22.902 11.0117L22.8767 10.9996L22.8513 10.9869L22.826 10.9742L22.8006 10.9614L22.7752 10.9487L22.7506 10.9366L22.7492 10.936L22.7245 10.9239L22.6998 10.9112L22.6745 10.8985L22.6491 10.8858L22.6244 10.8731L22.5991 10.8603L22.5847 10.8534L22.5744 10.8482L22.549 10.8349L22.5243 10.8228L22.4997 10.8095L22.4743 10.7974L22.4496 10.7847L22.4243 10.7714L22.4208 10.7696L22.3996 10.7592L22.3749 10.7465L22.3502 10.7332L22.3256 10.7211L22.3009 10.7078L22.2762 10.6951L22.2591 10.6864L22.2515 10.683L22.2268 10.6697L22.2022 10.657L22.1775 10.6443L22.1528 10.6316L22.1281 10.6183L22.1041 10.6061L22.098 10.6027L22.0795 10.5928L22.0548 10.5801L22.0308 10.5674L22.0061 10.5547L21.9821 10.542L21.9575 10.5287L21.9383 10.5183L21.9335 10.516L21.9088 10.5033L21.8848 10.4906L21.8608 10.4773L21.8368 10.4646V1.57896C21.8368 1.45648 21.712 1.35249 21.5674 1.35249H1.87412C1.72811 1.35249 1.60472 1.45706 1.60472 1.57896V20.3295C1.60472 20.4514 1.72948 20.556 1.87412 20.556H10.7155C10.8259 21.0205 10.9499 21.4699 11.087 21.9061H6.09533V24.421C6.09533 24.4823 6.12412 24.5401 6.17622 24.5793C6.22557 24.6209 6.29207 24.6475 6.36404 24.6475H12.2167C12.4635 25.1195 12.7308 25.5702 13.0187 26H6.36404C5.84924 26 5.38106 25.8221 5.03968 25.5372C4.70174 25.2518 4.49061 24.8572 4.49061 24.421V21.9084H1.87412C0.842461 21.9084 0 21.1984 0 20.3295V1.57896C0 0.708886 0.84109 0 1.87412 0H21.5674C22.5991 0 23.4408 0.709464 23.4408 1.57896V4.09155ZM5.93356 17.2022C5.5017 17.2022 5.1521 16.907 5.1521 16.5436C5.1521 16.1802 5.5017 15.8849 5.93356 15.8849H10.1013L10.1027 15.9057L10.1034 15.9271L10.1198 16.261L10.1212 16.2818L10.1219 16.3026L10.1232 16.3234L10.1239 16.3396L10.1246 16.3442L10.1253 16.365L10.1267 16.3858L10.128 16.4061L10.1294 16.4269L10.1479 16.7152L10.1493 16.7354L10.1513 16.7556L10.152 16.7764L10.1534 16.7937L10.1541 16.7966L10.1555 16.8174L10.1568 16.8376L10.1582 16.8579L10.1603 16.8787L10.1616 16.8983L10.1836 17.1617L10.1849 17.182L10.1863 17.2022H5.93356ZM5.94041 5.90276C5.50924 5.90276 5.15896 5.60754 5.15896 5.24414C5.15896 4.88074 5.50924 4.58552 5.94041 4.58552H17.4997C17.9309 4.58552 18.2805 4.88074 18.2805 5.24414C18.2805 5.60754 17.9309 5.90276 17.4997 5.90276H5.94041ZM5.93356 9.54656C5.5017 9.54656 5.1521 9.25134 5.1521 8.88794C5.1521 8.52454 5.5017 8.22932 5.93356 8.22932H17.4922C17.9241 8.22932 18.2737 8.52454 18.2737 8.88794C18.2737 9.25134 17.9241 9.54656 17.4922 9.54656H5.93356ZM5.93356 13.3747C5.5017 13.3747 5.1521 13.0794 5.1521 12.716C5.1521 12.3526 5.5017 12.0574 5.93356 12.0574H17.4922C17.7397 12.0574 17.9597 12.1545 18.1037 12.3053L18.0324 12.3318L18.0111 12.3399L17.9611 12.3584L17.8891 12.3838L17.7465 12.4347L17.6752 12.4595L17.6033 12.4838L17.532 12.5081L17.5087 12.5156L17.3887 12.5554L17.3174 12.5785L17.2859 12.5889L17.2454 12.6016L17.1741 12.6242L17.0309 12.6681L16.9589 12.6895L16.8876 12.7108L16.8156 12.7322L16.6717 12.7732L16.6004 12.7929L16.5572 12.805L16.5284 12.8125L16.4564 12.8322L16.3845 12.8512L16.3749 12.8541L16.3125 12.8697L16.2412 12.8882L16.0966 12.9246L16.0253 12.9419L15.9533 12.9593L15.8813 12.976L15.8265 12.9893L15.8087 12.9928L15.7367 13.009L15.5927 13.0413L15.5207 13.0563L15.4488 13.0714L15.3761 13.0864L15.3041 13.1014L15.2774 13.1066L15.2315 13.1153L15.1595 13.1291L15.0937 13.1418L15.0868 13.143L15.0149 13.1569L14.9429 13.1701L14.91 13.1759L14.8702 13.1829L14.7982 13.195L14.6529 13.2198L14.5809 13.2314L14.5419 13.2377L14.5083 13.2429L14.4356 13.2539L14.3636 13.2649L14.3582 13.2655L14.291 13.2753L14.2183 13.2857L14.1745 13.292L14.1457 13.2961L14.0737 13.3059L14.001 13.3152L13.9901 13.3169L13.9284 13.325L13.8557 13.3336L13.8057 13.3394L13.783 13.3423L13.7104 13.351L13.6377 13.3591L13.6213 13.3614L13.5651 13.3672L13.4924 13.3747H5.93356Z" fill="#1A1A1A"/>
    <path fill-rule="evenodd" clip-rule="evenodd" d="M27.9616 15.1958C28.3915 22.165 25.1852 26.283 19.503 28C14.0158 26.3911 10.7725 22.4533 11.0125 15.0898C13.8975 15.2104 16.7292 14.7107 19.4718 13C21.9061 14.2397 25.0083 15.412 27.9616 15.1958ZM19.4763 14.1948C22.1409 15.5493 24.5472 16.1927 26.6128 16.0402C26.9731 21.8982 24.2793 25.3582 19.5043 26.8037C14.8925 25.4527 12.1656 22.1415 12.3659 15.9514C14.795 16.0538 17.1734 15.6339 19.4763 14.1948Z" fill="#DE4C3C"/>
    <path fill-rule="evenodd" clip-rule="evenodd" d="M19.7826 17H21.2181C21.4863 17 21.7048 17.19 21.7048 17.4202V18.9791H23.5133C23.7816 18.9791 24 19.1686 24 19.3993V20.636C24 20.8674 23.7803 21.0568 23.5133 21.0568H21.7048V22.5798C21.7048 22.8111 21.4851 23 21.2181 23H19.7826C19.5143 23 19.2952 22.8106 19.2952 22.5798V21.0568H17.4873C17.219 21.0568 17 20.8674 17 20.636V19.3983C17 19.1669 17.2203 18.9786 17.4873 18.9786H19.2952V17.4202C19.2952 17.1889 19.5143 17 19.7826 17Z" fill="#BD2615"/>
</svg>
