<svg xmlns="http://www.w3.org/2000/svg" height="40" viewBox="0 -960 960 960" width="40"><path d="M320-486.667v-66.666h320v66.666H320Zm0-160v-66.666h320v66.666H320Zm-84 233.334h286.334q32.432 0 59.737 13.479 27.304 13.479 46.929 39.521l95 123.001v-566.002H236v390.001Zm0 256.667h415.001L545.334-295.334q-3.437-5.353-10.008-8.676-6.57-3.324-12.992-3.324H236v150.668ZM724-50.667H236q-42.425 0-74.212-31.087Q130-112.842 130-156.666v-646.668q0-44.099 31.788-75.382Q193.575-910 236-910h488q42.7 0 74.683 31.284 31.983 31.283 31.983 75.382v646.668q0 43.824-31.983 74.912Q766.7-50.667 724-50.667ZM236-156.666v-646.668 646.668Zm0-150.668v-105.999 105.999Z"/></svg>